<svg width="106" height="80" viewBox="0 0 106 80" fill="none" xmlns="http://www.w3.org/2000/svg">
<path d="M2.24609 77.1939C11.1743 52.9164 48.5493 50.1152 62.2505 49.9127V62.9402C62.2505 65.6739 65.4624 67.1589 67.5513 65.4039L101.771 36.6714C103.298 35.3889 103.309 33.0264 101.782 31.7439L67.54 3.02265C65.4512 1.26765 62.2505 2.75265 62.2505 5.4864V18.3789C46.8647 18.7389 2.24609 24.2964 2.24609 77.1939Z" fill="black"/>
<path d="M4.42492 77.79C4.52599 77.5088 4.6383 77.2275 4.7506 76.9463C4.7843 76.8675 4.81799 76.7888 4.85168 76.71C4.86291 76.6875 4.64953 77.1713 4.7506 76.9463C4.81799 76.7888 4.88537 76.6313 4.95275 76.4738C5.19982 75.9113 5.46935 75.36 5.76135 74.82C6.32287 73.7513 6.95178 72.7163 7.63683 71.7263C7.79406 71.5013 7.95129 71.2875 8.10851 71.0738C8.19836 70.9613 8.27697 70.8375 8.36681 70.725C8.44543 70.6125 8.63635 70.4213 8.24328 70.8825C8.29943 70.815 8.34435 70.7475 8.40051 70.6913C8.77111 70.2188 9.15295 69.7688 9.54601 69.3188C10.3321 68.43 11.1744 67.575 12.0616 66.7763C12.4996 66.3713 12.9601 65.9775 13.4205 65.595C13.6451 65.415 13.8697 65.2238 14.0944 65.0438C14.1393 65.01 14.1954 64.965 14.2403 64.9313C14.4313 64.7738 14.0045 65.1113 14.027 65.0888C14.1617 64.9875 14.2853 64.8863 14.42 64.785C15.3859 64.065 16.3854 63.3788 17.4186 62.7375C19.485 61.4438 21.6412 60.3188 23.8649 59.3288C24.1344 59.205 24.4152 59.0925 24.6847 58.9688C25.1788 58.755 24.3141 59.115 24.6847 58.9688C24.8419 58.9013 24.9991 58.8338 25.1564 58.7775C25.7291 58.5413 26.3131 58.3163 26.8859 58.1025C28.0538 57.6638 29.2218 57.2588 30.401 56.8875C32.7257 56.145 35.0841 55.515 37.465 54.975C39.7672 54.4463 42.0807 54.0075 44.4054 53.6363C44.9669 53.5463 45.5397 53.4563 46.1012 53.3775C46.3707 53.3438 46.6402 53.2988 46.9098 53.265C46.9884 53.2538 47.067 53.2425 47.1344 53.2313C47.1793 53.22 46.5729 53.2988 46.8199 53.2763C46.9772 53.2538 47.1232 53.2313 47.2804 53.22C48.3585 53.085 49.4254 52.9613 50.5035 52.8488C54.0636 52.4775 57.6349 52.2638 61.2174 52.1738C61.5655 52.1625 61.9137 52.1625 62.2618 52.1513C61.5094 51.3975 60.7682 50.655 60.0157 49.9013C60.0157 54.2325 59.9484 58.5638 60.0157 62.8838C60.0494 65.325 61.5319 67.3163 63.8116 68.1263C65.7096 68.8013 67.6861 68.1825 69.1798 66.945C69.9435 66.315 70.6959 65.6625 71.4596 65.0325C75.379 61.7475 79.2872 58.4513 83.2066 55.1663C87.7438 51.3525 92.2809 47.55 96.818 43.7363C98.3902 42.4088 99.9737 41.0813 101.546 39.765C102.186 39.225 102.849 38.7188 103.466 38.145C105.679 36.075 105.69 32.3175 103.466 30.2475C103.287 30.0788 103.085 29.9213 102.894 29.7638C101.771 28.8188 100.648 27.885 99.5245 26.94C95.2794 23.3738 91.0343 19.8075 86.7892 16.2525C82.443 12.6075 78.108 8.96253 73.7618 5.31753C72.4816 4.23753 71.1901 3.15753 69.9098 2.08878C69.6627 1.87503 69.4156 1.67253 69.1573 1.45878C67.6637 0.221285 65.6871 -0.397464 63.7892 0.277535C61.5094 1.08754 60.027 3.09003 59.9933 5.52003C59.982 6.30753 59.9933 7.09503 59.9933 7.88253C59.9933 10.7625 59.9933 13.6425 59.9933 16.5225C59.9933 17.1413 59.9933 17.76 59.9933 18.3675C60.7457 17.6138 61.4869 16.8713 62.2394 16.1175C58.0729 16.2075 53.9064 16.635 49.7848 17.3213C44.5738 18.1875 39.4303 19.56 34.5338 21.54C28.6715 23.9475 23.1686 27.12 18.3395 31.2938C13.1173 35.805 8.87219 41.4638 5.95226 47.7188C2.17883 55.7963 0.460565 64.6275 0.0899598 73.5038C0.0338075 74.7413 0.0113465 75.9675 0.0113465 77.205C0.0113465 78.3863 1.04455 79.5113 2.25744 79.455C3.47033 79.3988 4.50353 78.465 4.50353 77.205C4.50353 74.7413 4.60461 72.2663 4.81799 69.8138C4.86291 69.24 4.91906 68.6775 4.98644 68.1038C5.0089 67.845 5.0426 67.5975 5.07629 67.3388C5.09875 67.1925 5.10998 67.035 5.13244 66.8888C5.14367 66.7875 5.1549 66.6863 5.16613 66.585C5.19982 66.3375 5.18859 66.3825 5.14367 66.7313C5.0426 66.6975 5.60412 63.8063 5.66027 63.5138C6.39025 59.5538 7.47961 55.65 8.99572 51.915C9.0631 51.7463 9.40002 51.0038 9.08556 51.7013C9.17541 51.51 9.25402 51.3188 9.33264 51.1275C9.53478 50.6775 9.73693 50.2275 9.95031 49.7775C10.3321 48.9788 10.7252 48.1913 11.152 47.415C11.983 45.885 12.8927 44.3888 13.881 42.96C14.1168 42.6225 14.3527 42.285 14.5997 41.9475C14.712 41.8013 14.8243 41.6438 14.9366 41.4975C15.004 41.4075 15.0714 41.3175 15.1388 41.2275C15.4532 40.8113 14.9928 41.4075 15.0939 41.2838C15.5992 40.6313 16.1158 39.99 16.6549 39.3713C17.7106 38.1563 18.8224 36.9975 19.9903 35.895C21.1022 34.8488 22.3038 33.915 23.4606 32.9138C22.8429 33.4425 23.4156 32.9475 23.5729 32.8238C23.7076 32.7225 23.8424 32.6213 23.9772 32.52C24.3029 32.2725 24.6285 32.0363 24.9654 31.8113C25.5719 31.3838 26.1783 30.9788 26.8072 30.5738C29.2779 28.9875 31.8834 27.6038 34.5675 26.4225C34.7135 26.355 34.8595 26.2988 35.0055 26.2313C35.0953 26.1975 35.1852 26.1525 35.2638 26.1188C35.6119 25.9725 34.7809 26.3213 35.0279 26.22C35.3649 26.085 35.7018 25.9388 36.0387 25.8038C36.6901 25.545 37.3414 25.2975 38.004 25.0613C39.2731 24.6 40.5646 24.1838 41.8673 23.79C44.338 23.0588 46.8424 22.4625 49.3693 21.99C50.526 21.7763 51.694 21.5738 52.8619 21.405C52.9855 21.3825 53.109 21.3713 53.2325 21.3488C53.3111 21.3375 53.3785 21.3263 53.4571 21.315C53.7716 21.27 53.0304 21.3713 53.0865 21.36C53.3785 21.315 53.6705 21.2813 53.9625 21.2475C54.4791 21.18 55.0069 21.1238 55.5235 21.0675C57.3878 20.8763 59.2521 20.7413 61.1276 20.6738C61.5094 20.6625 61.8912 20.6513 62.2731 20.64C63.486 20.6175 64.5192 19.6275 64.5192 18.39C64.5192 14.1263 64.4967 9.86253 64.5192 5.59878C64.5192 5.52003 64.5192 5.43003 64.5192 5.35128C64.5079 4.96878 64.5192 5.48628 64.4855 5.53128C64.5416 5.46378 64.5528 5.22753 64.5753 5.13753C64.5978 5.07003 64.6539 4.95753 64.6651 4.89003C64.5192 5.22753 64.4967 5.29503 64.5978 5.08128C64.6315 5.02503 64.6651 4.96878 64.6988 4.91253C64.8448 4.64253 64.9122 4.85628 64.609 5.01378C64.6539 4.99128 64.7325 4.87878 64.7775 4.83378C64.8561 4.75503 64.9796 4.67628 65.047 4.58628C64.7662 4.93503 64.7213 4.81128 64.8898 4.72128C64.9571 4.68753 65.1705 4.59753 65.2154 4.54128C65.193 4.57503 64.6764 4.72128 65.0245 4.62003C65.1256 4.58628 65.2154 4.55253 65.3165 4.53003C65.3727 4.51878 65.4401 4.49628 65.4962 4.48503C65.732 4.44003 65.6534 4.45128 65.2716 4.51878C65.3278 4.53003 65.4513 4.50753 65.5187 4.50753C65.8107 4.50753 65.8668 4.65378 65.4176 4.46253C65.5411 4.50753 65.923 4.64253 66.0353 4.63128C65.9679 4.64253 65.5524 4.37253 65.8556 4.56378C65.9342 4.62003 66.0577 4.71003 66.1476 4.74378C66.361 4.82253 65.9791 4.60878 65.9791 4.60878C66.024 4.66503 66.0914 4.69878 66.1476 4.74378C67.0348 5.49753 67.9332 6.25128 68.8317 6.99378C72.7399 10.2788 76.6481 13.5638 80.5563 16.8375C84.9586 20.5388 89.3609 24.2288 93.7633 27.93C95.9083 29.73 98.087 31.485 100.187 33.33C100.266 33.3975 100.344 33.465 100.423 33.5438C100.457 33.5775 100.49 33.6225 100.524 33.6563C100.681 33.8475 100.659 33.8138 100.445 33.555C100.457 33.555 100.614 33.825 100.603 33.8138C100.85 34.185 100.558 33.4875 100.58 33.7463C100.591 33.8475 100.648 33.9938 100.681 34.095C100.816 34.5338 100.726 33.7238 100.67 33.9938C100.659 34.0388 100.648 34.4775 100.67 34.5C100.625 34.4663 100.805 33.9375 100.681 34.3313C100.67 34.3538 100.569 34.7475 100.558 34.7475C100.513 34.725 100.838 34.2525 100.603 34.6125C100.58 34.6575 100.558 34.7025 100.524 34.7363C100.412 34.8938 100.423 34.905 100.535 34.7588C100.569 34.725 100.591 34.6913 100.625 34.6463C100.558 34.725 100.49 34.8038 100.423 34.8713C100.344 34.95 100.277 35.0175 100.198 35.085L100.187 35.0963C99.9962 35.265 99.7941 35.4225 99.5919 35.5913C98.4464 36.5588 97.3009 37.515 96.1554 38.4825C92.0113 41.9588 87.8785 45.435 83.7345 48.9113C79.4669 52.5 75.1993 56.0775 70.9317 59.6663C69.629 60.7575 68.3151 61.86 67.0123 62.9513C66.7091 63.21 66.4059 63.4575 66.1026 63.7163C66.069 63.75 66.0128 63.7838 65.9791 63.8175C66.17 63.5925 66.3273 63.5925 66.0914 63.7163C66.0128 63.7613 65.923 63.8063 65.8556 63.8513C65.485 64.0875 66.2374 63.7725 65.9679 63.8063C65.8668 63.8175 65.7657 63.8738 65.6647 63.8963C65.5973 63.9075 65.1705 64.0088 65.586 63.9188C65.9791 63.84 65.6085 63.9075 65.5074 63.9075C65.4625 63.9075 65.3165 63.885 65.2604 63.8963C65.6534 63.9525 65.732 63.9638 65.485 63.93C65.4064 63.9188 65.3277 63.8963 65.2491 63.8738C65.1705 63.8513 65.0919 63.8175 65.0133 63.795C64.609 63.6713 65.3614 64.02 65.1593 63.8513C65.0919 63.795 64.9684 63.7388 64.8898 63.6938C64.5865 63.5363 65.0133 63.7838 65.047 63.8288C64.9684 63.7275 64.7213 63.4575 64.609 63.4013C64.901 63.5475 64.8561 63.7613 64.6651 63.4463C64.5192 63.21 64.6315 63.0525 64.6651 63.525C64.6539 63.4238 64.5416 62.9738 64.4855 62.8838C64.6539 63.1425 64.5192 63.3338 64.5192 63.0638C64.5192 63.0863 64.5192 62.9625 64.5192 62.9175C64.5192 62.8613 64.5192 62.805 64.5192 62.7488C64.5192 61.8488 64.5192 60.9375 64.5192 60.0375C64.5192 57.225 64.5192 54.4125 64.5192 51.6113C64.5192 51.0375 64.5192 50.475 64.5192 49.9013C64.5192 48.6975 63.486 47.6288 62.2731 47.6513C58.7804 47.6963 55.2877 47.8875 51.8063 48.2138C47.1119 48.6525 42.4176 49.3163 37.8019 50.295C32.9166 51.33 28.0875 52.7138 23.483 54.6375C18.6427 56.6625 14.0719 59.1825 10.0402 62.5688C6.21057 65.7975 2.98742 69.8475 0.977167 74.4375C0.662714 75.1463 0.370721 75.8663 0.10119 76.5975C-0.303107 77.7 0.561639 79.1063 1.67346 79.365C2.9425 79.6575 3.98693 78.9713 4.42492 77.79Z" fill="black"/>
</svg>
