<svg width="100" height="46" viewBox="0 0 100 46" fill="none" xmlns="http://www.w3.org/2000/svg">
<path d="M29.0314 6.45093H3.22571C2.3702 6.45093 1.54973 6.79079 0.944788 7.39574C0.33985 8.00069 0 8.82118 0 9.67672C0 10.5322 0.33985 11.3527 0.944788 11.9577C1.54973 12.5626 2.3702 12.9025 3.22571 12.9025H29.0314C29.8869 12.9025 30.7073 12.5626 31.3123 11.9577C31.9172 11.3527 32.2571 10.5322 32.2571 9.67672C32.2571 8.82118 31.9172 8.00069 31.3123 7.39574C30.7073 6.79079 29.8869 6.45093 29.0314 6.45093Z" fill="black"/>
<path d="M29.0297 19.3542H9.67541C8.8199 19.3542 7.99943 19.6941 7.39449 20.2991C6.78956 20.904 6.44971 21.7245 6.44971 22.58C6.44971 23.4356 6.78956 24.2561 7.39449 24.861C7.99943 25.466 8.8199 25.8058 9.67541 25.8058H29.0297C29.8852 25.8058 30.7056 25.466 31.3106 24.861C31.9155 24.2561 32.2554 23.4356 32.2554 22.58C32.2554 21.7245 31.9155 20.904 31.3106 20.2991C30.7056 19.6941 29.8852 19.3542 29.0297 19.3542Z" fill="black"/>
<path d="M29.0315 32.2571H19.3544C18.4989 32.2571 17.6784 32.5969 17.0735 33.2019C16.4685 33.8068 16.1287 34.6273 16.1287 35.4829C16.1287 36.3384 16.4685 37.1589 17.0735 37.7638C17.6784 38.3688 18.4989 38.7087 19.3544 38.7087H29.0315C29.887 38.7087 30.7075 38.3688 31.3124 37.7638C31.9173 37.1589 32.2572 36.3384 32.2572 35.4829C32.2572 34.6273 31.9173 33.8068 31.3124 33.2019C30.7075 32.5969 29.887 32.2571 29.0315 32.2571Z" fill="black"/>
<path d="M91.4515 0H47.2593C44.9606 0.0424299 42.772 0.992047 41.1707 2.64176C39.5693 4.29147 38.6852 6.50744 38.7112 8.8064V36.3224C38.6766 38.6269 39.5569 40.8511 41.1592 42.5078C42.7614 44.1646 44.955 45.1186 47.2593 45.161H91.4515C93.7502 45.1186 95.9388 44.169 97.5401 42.5193C99.1415 40.8696 100.026 38.6536 99.9996 36.3546V8.8064C100.026 6.50744 99.1415 4.29147 97.5401 2.64176C95.9388 0.992047 93.7502 0.0424299 91.4515 0ZM88.2258 6.45158L69.3877 21.4838L50.356 6.45158H88.2258ZM91.4515 38.7095H47.2593C46.6717 38.668 46.1236 38.3985 45.7319 37.9586C45.3402 37.5187 45.1359 36.9431 45.1626 36.3546V10.5483L67.3877 28.0966C67.9572 28.5466 68.6618 28.7914 69.3877 28.7914C70.1135 28.7914 70.8181 28.5466 71.3876 28.0966L93.5482 10.5806V36.3869C93.5663 36.9699 93.3582 37.5373 92.9673 37.9702C92.5765 38.4032 92.0333 38.6681 91.4515 38.7095Z" fill="black"/>
</svg>
