<svg width="75" height="34" viewBox="0 0 75 34" fill="none" xmlns="http://www.w3.org/2000/svg">
<path d="M74.9998 23.6C74.8479 26.3039 73.6572 28.8445 71.6763 30.6912C69.6954 32.5379 67.0777 33.5478 64.3698 33.51H38.8198C38.2574 33.5048 37.7197 33.2784 37.323 32.8797C36.9263 32.4811 36.7024 31.9424 36.6998 31.38V3.87001C36.6812 3.39795 36.806 2.93132 37.0577 2.5315C37.3093 2.13168 37.6761 1.81741 38.1098 1.63001C38.1098 1.63001 40.4598 1.20458e-05 45.4098 1.20458e-05C48.4337 -0.00361505 51.4022 0.81193 53.9998 2.36001C56.0273 3.55287 57.7852 5.15352 59.1622 7.06072C60.5393 8.96792 61.5055 11.1402 61.9998 13.44C62.8814 13.1906 63.7936 13.0661 64.7098 13.07C66.0839 13.0614 67.4456 13.3296 68.7138 13.8588C69.9819 14.388 71.1304 15.1672 72.0908 16.15C73.0512 17.1327 73.8037 18.2989 74.3035 19.5789C74.8033 20.8589 75.0401 22.2265 74.9998 23.6Z" fill="white"/>
<path d="M33.51 5.61005C33.5228 5.49408 33.511 5.37672 33.4753 5.26562C33.4397 5.15452 33.3811 5.05219 33.3032 4.96528C33.2254 4.87838 33.1301 4.80887 33.0235 4.76128C32.917 4.71368 32.8017 4.68909 32.685 4.68909C32.5683 4.68909 32.453 4.71368 32.3464 4.76128C32.2399 4.80887 32.1446 4.87838 32.0668 4.96528C31.9889 5.05219 31.9303 5.15452 31.8946 5.26562C31.859 5.37672 31.8472 5.49408 31.86 5.61005C31.16 14.8601 30.62 23.5301 31.86 32.7501C31.8824 32.9532 31.9789 33.1409 32.1312 33.2773C32.2834 33.4137 32.4806 33.4891 32.685 33.4891C32.8894 33.4891 33.0866 33.4137 33.2388 33.2773C33.391 33.1409 33.4876 32.9532 33.51 32.7501C34.84 23.4501 34.28 14.9401 33.51 5.61005Z" fill="white"/>
<path d="M28.35 8.81006C28.327 8.59669 28.226 8.39933 28.0663 8.25593C27.9067 8.11253 27.6996 8.0332 27.485 8.0332C27.2704 8.0332 27.0634 8.11253 26.9037 8.25593C26.744 8.39933 26.643 8.59669 26.62 8.81006C25.695 16.7666 25.695 24.8035 26.62 32.7601C26.6514 32.9656 26.7555 33.1531 26.9132 33.2886C27.071 33.4241 27.2721 33.4985 27.48 33.4985C27.688 33.4985 27.889 33.4241 28.0468 33.2886C28.2045 33.1531 28.3086 32.9656 28.34 32.7601C29.3734 24.8104 29.3767 16.7606 28.35 8.81006Z" fill="white"/>
<path d="M23.1599 8.00007C23.1374 7.79437 23.0397 7.60422 22.8856 7.4661C22.7315 7.32797 22.5319 7.25159 22.3249 7.25159C22.118 7.25159 21.9183 7.32797 21.7642 7.4661C21.6101 7.60422 21.5125 7.79437 21.4899 8.00007C20.6999 16.4401 20.2999 24.3201 21.4899 32.7401C21.4899 32.9602 21.5774 33.1713 21.733 33.327C21.8887 33.4826 22.0998 33.5701 22.3199 33.5701C22.54 33.5701 22.7512 33.4826 22.9068 33.327C23.0625 33.1713 23.1499 32.9602 23.1499 32.7401C24.3799 24.2101 23.9999 16.5501 23.1599 8.00007Z" fill="white"/>
<path d="M18 10.41C18 10.182 17.9094 9.96322 17.7481 9.80194C17.5868 9.64066 17.3681 9.55005 17.14 9.55005C16.9119 9.55005 16.6932 9.64066 16.5319 9.80194C16.3706 9.96322 16.28 10.182 16.28 10.41C15.325 17.8328 15.325 25.3473 16.28 32.7701C16.3027 32.9783 16.4015 33.1709 16.5574 33.3107C16.7134 33.4506 16.9155 33.528 17.125 33.528C17.3345 33.528 17.5366 33.4506 17.6926 33.3107C17.8485 33.1709 17.9473 32.9783 17.97 32.7701C19.0049 25.3533 19.015 17.8295 18 10.41Z" fill="white"/>
<path d="M12.79 16C12.79 15.7746 12.7004 15.5584 12.541 15.399C12.3816 15.2396 12.1654 15.15 11.94 15.15C11.7146 15.15 11.4984 15.2396 11.339 15.399C11.1796 15.5584 11.09 15.7746 11.09 16C9.86 21.76 10.44 27 11.14 32.83C11.1702 33.0205 11.2674 33.1939 11.414 33.3191C11.5607 33.4443 11.7472 33.5131 11.94 33.5131C12.1328 33.5131 12.3193 33.4443 12.466 33.3191C12.6126 33.1939 12.7098 33.0205 12.74 32.83C13.51 26.92 14.1 21.8 12.79 16Z" fill="white"/>
<path d="M7.6199 15.1201C7.59679 14.9041 7.49464 14.7044 7.33311 14.5592C7.17158 14.414 6.96208 14.3337 6.7449 14.3337C6.52773 14.3337 6.31823 14.414 6.1567 14.5592C5.99517 14.7044 5.89302 14.9041 5.8699 15.1201C4.7799 21.0001 5.1399 26.1801 5.8999 32.0501C5.9799 32.9401 7.4899 32.9301 7.5899 32.0501C8.4299 26.0901 8.8199 21.0601 7.6199 15.1201Z" fill="white"/>
<path d="M2.3999 18.0001C2.37678 17.7841 2.27463 17.5844 2.1131 17.4392C1.95157 17.294 1.74207 17.2137 1.5249 17.2137C1.30772 17.2137 1.09822 17.294 0.936692 17.4392C0.775162 17.5844 0.673013 17.7841 0.649896 18.0001C-0.350104 21.9501 -0.0401044 25.2201 0.719896 29.1801C0.742149 29.3807 0.837596 29.566 0.987968 29.7006C1.13834 29.8352 1.33307 29.9097 1.5349 29.9097C1.73672 29.9097 1.93145 29.8352 2.08182 29.7006C2.23219 29.566 2.32764 29.3807 2.3499 29.1801C3.2299 25.1401 3.6599 21.9401 2.3999 18.0001Z" fill="white"/>
</svg>
